<?xml version="1.0" encoding="utf-8" ?>
<svg xmlns="http://www.w3.org/2000/svg" xmlns:xlink="http://www.w3.org/1999/xlink" width="125" height="79">
	<defs>
		<clipPath id="clip_0">
			<rect x="-224.21088" y="-4052.0237" width="1279.616" height="5406.3774" clip-rule="evenodd"/>
		</clipPath>
	</defs>
	<g clip-path="url(#clip_0)">
		<path fill="none" stroke="rgb(54,87,119)" stroke-width="3" stroke-miterlimit="4" transform="matrix(0.9997 0 0 0.9997 27.7135 0.760254)" d="M19.0667 30.4615L26 30.4615L26 44L39.8667 30.4615L52 30.4615L52 0L0 0L0 13.5385"/>
	</g>
	<defs>
		<clipPath id="clip_1">
			<rect x="-224.21088" y="-4052.0237" width="1279.616" height="5406.3774" clip-rule="evenodd"/>
		</clipPath>
	</defs>
	<g clip-path="url(#clip_1)">
		<path fill="none" stroke="rgb(54,87,119)" stroke-width="3" stroke-miterlimit="4" transform="matrix(0.9997 0 0 0.9997 0.721619 53.7441)" d="M18.7 0.437004L18.7 8.06535L5.3006 12.9983C2.091 14.1764 0 17.2984 0 20.7979L0 26L51 26L51 20.7979C51 17.2984 48.909 14.1764 45.6994 12.9983L32.3 8.06535L32.3 0"/>
	</g>
	<defs>
		<clipPath id="clip_2">
			<rect x="-224.21088" y="-4052.0237" width="1279.616" height="5406.3774" clip-rule="evenodd"/>
		</clipPath>
	</defs>
	<g clip-path="url(#clip_2)">
		<path fill="none" stroke="rgb(54,87,119)" stroke-width="3" stroke-miterlimit="4" transform="matrix(0.9997 0 0 0.9997 12.718 23.7534)" d="M27 15.9983C27 24.8318 20.9571 32 13.5017 32C6.04636 32 0 24.8318 0 15.9983C0 7.16141 6.04636 0 13.5017 0C20.9571 0 27 7.16141 27 15.9983L27 15.9983Z"/>
	</g>
	<defs>
		<clipPath id="clip_3">
			<rect x="-224.21088" y="-4052.0237" width="1279.616" height="5406.3774" clip-rule="evenodd"/>
		</clipPath>
	</defs>
	<g clip-path="url(#clip_3)">
		<path fill="none" stroke="rgb(54,87,119)" stroke-width="3" stroke-miterlimit="4" transform="matrix(0.9997 0 0 0.9997 12.718 33.75)" d="M27 5.61844C26.541 5.68636 26.1717 5.6524 25.7092 5.74674C21.0671 6.72402 18.0886 4.88642 15.5346 0C13.9987 3.20731 9.21168 5.74674 5.27368 5.74674C3.33747 5.74674 1.66701 5.31281 0 4.35816"/>
	</g>
	<defs>
		<clipPath id="clip_4">
			<rect x="-224.21088" y="-4052.0237" width="1279.616" height="5406.3774" clip-rule="evenodd"/>
		</clipPath>
	</defs>
	<g clip-path="url(#clip_4)">
		<path fill="rgb(54,87,119)" stroke="none" transform="matrix(0.9997 0 0 0.9997 63.7027 16.7554)" d="M3 0L0 0L0 3L3 3L3 0Z"/>
	</g>
	<defs>
		<clipPath id="clip_5">
			<rect x="-224.21088" y="-4052.0237" width="1279.616" height="5406.3774" clip-rule="evenodd"/>
		</clipPath>
	</defs>
	<g clip-path="url(#clip_5)">
		<path fill="rgb(54,87,119)" stroke="none" transform="matrix(0.9997 0 0 0.9997 53.7057 16.7554)" d="M3 0L0 0L0 3L3 3L3 0Z"/>
	</g>
	<defs>
		<clipPath id="clip_6">
			<rect x="-224.21088" y="-4052.0237" width="1279.616" height="5406.3774" clip-rule="evenodd"/>
		</clipPath>
	</defs>
	<g clip-path="url(#clip_6)">
		<path fill="rgb(54,87,119)" stroke="none" transform="matrix(0.9997 0 0 0.9997 43.7087 16.7554)" d="M3 0L0 0L0 3L3 3L3 0Z"/>
	</g>
	<defs>
		<clipPath id="clip_7">
			<rect x="-224.21088" y="-4052.0237" width="1279.616" height="5406.3774" clip-rule="evenodd"/>
		</clipPath>
	</defs>
	<g clip-path="url(#clip_7)">
		<path fill="rgb(255,255,255)" stroke="none" transform="matrix(0.9997 0 0 0.9997 78.6982 45.9229)" d="M16.8796 0.395874L16.8796 7.30626L4.78461 11.7749C1.88745 12.8422 0 15.6703 0 18.8405L0 23.5529L46.0354 23.5529L46.0354 18.8405C46.0354 15.6703 44.1479 12.8422 41.2508 11.7749L29.1558 7.30626L29.1558 0"/>
	</g>
	<defs>
		<clipPath id="clip_8">
			<rect x="-224.21088" y="-4052.0237" width="1279.616" height="5406.3774" clip-rule="evenodd"/>
		</clipPath>
	</defs>
	<g clip-path="url(#clip_8)">
		<path fill="none" stroke="rgb(54,87,119)" stroke-width="2.7" stroke-miterlimit="4" transform="matrix(0.9997 0 0 0.9997 78.6982 45.9229)" d="M16.8796 0.395874L16.8796 7.30626L4.78461 11.7749C1.88745 12.8422 0 15.6703 0 18.8405L0 23.5529L46.0354 23.5529L46.0354 18.8405C46.0354 15.6703 44.1479 12.8422 41.2508 11.7749L29.1558 7.30626L29.1558 0"/>
	</g>
	<defs>
		<clipPath id="clip_9">
			<rect x="-224.21088" y="-4052.0237" width="1279.616" height="5406.3774" clip-rule="evenodd"/>
		</clipPath>
	</defs>
	<g clip-path="url(#clip_9)">
		<path fill="rgb(255,255,255)" stroke="none" transform="matrix(0.9997 0 0 0.9997 89.5268 18.7549)" d="M24.3717 14.4926C24.3717 22.4947 18.917 28.9882 12.1874 28.9882C5.45777 28.9882 0 22.4947 0 14.4926C0 6.48739 5.45777 0 12.1874 0C18.917 0 24.3717 6.48739 24.3717 14.4926L24.3717 14.4926Z"/>
	</g>
	<defs>
		<clipPath id="clip_10">
			<rect x="-224.21088" y="-4052.0237" width="1279.616" height="5406.3774" clip-rule="evenodd"/>
		</clipPath>
	</defs>
	<g clip-path="url(#clip_10)">
		<path fill="none" stroke="rgb(54,87,119)" stroke-width="2.7" stroke-miterlimit="4" transform="matrix(0.9997 0 0 0.9997 89.5268 18.7549)" d="M24.3717 14.4926C24.3717 22.4947 18.917 28.9882 12.1874 28.9882C5.45777 28.9882 0 22.4947 0 14.4926C0 6.48739 5.45777 0 12.1874 0C18.917 0 24.3717 6.48739 24.3717 14.4926L24.3717 14.4926Z"/>
	</g>
</svg>
