<?xml version="1.0" encoding="utf-8" ?>
<svg xmlns="http://www.w3.org/2000/svg" xmlns:xlink="http://www.w3.org/1999/xlink" width="102" height="77">
	<defs>
		<clipPath id="clip_0">
			<rect x="-963" y="-4057" width="1280" height="5408" clip-rule="evenodd"/>
		</clipPath>
	</defs>
	<g clip-path="url(#clip_0)">
		<path fill="rgb(255,255,255)" stroke="none" transform="translate(27.9823 27.1763)" d="M16.8796 0.395874L16.8796 7.30626L4.78461 11.7749C1.88745 12.8422 0 15.6703 0 18.8405L0 23.5529L46.0354 23.5529L46.0354 18.8405C46.0354 15.6703 44.1479 12.8422 41.2508 11.7749L29.1558 7.30626L29.1558 0"/>
	</g>
	<defs>
		<clipPath id="clip_1">
			<rect x="-963" y="-4057" width="1280" height="5408" clip-rule="evenodd"/>
		</clipPath>
	</defs>
	<g clip-path="url(#clip_1)">
		<path fill="none" stroke="rgb(54,87,119)" stroke-width="2.7" stroke-miterlimit="4" transform="translate(27.9823 27.1763)" d="M16.8796 0.395874L16.8796 7.30626L4.78461 11.7749C1.88745 12.8422 0 15.6703 0 18.8405L0 23.5529L46.0354 23.5529L46.0354 18.8405C46.0354 15.6703 44.1479 12.8422 41.2508 11.7749L29.1558 7.30626L29.1558 0"/>
	</g>
	<defs>
		<clipPath id="clip_2">
			<rect x="-963" y="-4057" width="1280" height="5408" clip-rule="evenodd"/>
		</clipPath>
	</defs>
	<g clip-path="url(#clip_2)">
		<path fill="rgb(255,255,255)" stroke="none" transform="translate(38.8142 0)" d="M24.3717 14.4926C24.3717 22.4947 18.917 28.9882 12.1874 28.9882C5.45777 28.9882 0 22.4947 0 14.4926C0 6.48739 5.45777 0 12.1874 0C18.917 0 24.3717 6.48739 24.3717 14.4926L24.3717 14.4926Z"/>
	</g>
	<defs>
		<clipPath id="clip_3">
			<rect x="-963" y="-4057" width="1280" height="5408" clip-rule="evenodd"/>
		</clipPath>
	</defs>
	<g clip-path="url(#clip_3)">
		<path fill="none" stroke="rgb(54,87,119)" stroke-width="2.7" stroke-miterlimit="4" transform="translate(38.8142 0)" d="M24.3717 14.4926C24.3717 22.4947 18.917 28.9882 12.1874 28.9882C5.45777 28.9882 0 22.4947 0 14.4926C0 6.48739 5.45777 0 12.1874 0C18.917 0 24.3717 6.48739 24.3717 14.4926L24.3717 14.4926Z"/>
	</g>
	<defs>
		<clipPath id="clip_4">
			<rect x="-963" y="-4057" width="1280" height="5408" clip-rule="evenodd"/>
		</clipPath>
	</defs>
	<g clip-path="url(#clip_4)">
		<path fill="none" stroke="rgb(54,87,119)" stroke-width="2.7" stroke-miterlimit="4" transform="translate(38.8142 9.05859)" d="M24.3717 5.08965C23.9573 5.15118 23.624 5.12041 23.2065 5.20587C19.0163 6.09117 16.3277 4.42653 14.0224 0C12.636 2.90544 8.31497 5.20587 4.76031 5.20587C3.01258 5.20587 1.50473 4.81278 0 3.94798"/>
	</g>
	<defs>
		<clipPath id="clip_5">
			<rect x="-963" y="-4057" width="1280" height="5408" clip-rule="evenodd"/>
		</clipPath>
	</defs>
	<g clip-path="url(#clip_5)">
		<path fill="rgb(255,255,255)" stroke="none" transform="translate(0 53.4468)" d="M16.8796 0.395874L16.8796 7.30626L4.78461 11.7749C1.88745 12.8422 0 15.6703 0 18.8405L0 23.5529L46.0354 23.5529L46.0354 18.8405C46.0354 15.6703 44.1479 12.8422 41.2508 11.7749L29.1558 7.30626L29.1558 0"/>
	</g>
	<defs>
		<clipPath id="clip_6">
			<rect x="-963" y="-4057" width="1280" height="5408" clip-rule="evenodd"/>
		</clipPath>
	</defs>
	<g clip-path="url(#clip_6)">
		<path fill="none" stroke="rgb(54,87,119)" stroke-width="2.7" stroke-miterlimit="4" transform="translate(0 53.4468)" d="M16.8796 0.395874L16.8796 7.30626L4.78461 11.7749C1.88745 12.8422 0 15.6703 0 18.8405L0 23.5529L46.0354 23.5529L46.0354 18.8405C46.0354 15.6703 44.1479 12.8422 41.2508 11.7749L29.1558 7.30626L29.1558 0"/>
	</g>
	<defs>
		<clipPath id="clip_7">
			<rect x="-963" y="-4057" width="1280" height="5408" clip-rule="evenodd"/>
		</clipPath>
	</defs>
	<g clip-path="url(#clip_7)">
		<path fill="rgb(255,255,255)" stroke="none" transform="translate(10.8319 26.2705)" d="M24.3717 14.4926C24.3717 22.4947 18.917 28.9882 12.1874 28.9882C5.45777 28.9882 0 22.4947 0 14.4926C0 6.48739 5.45777 0 12.1874 0C18.917 0 24.3717 6.48739 24.3717 14.4926L24.3717 14.4926Z"/>
	</g>
	<defs>
		<clipPath id="clip_8">
			<rect x="-963" y="-4057" width="1280" height="5408" clip-rule="evenodd"/>
		</clipPath>
	</defs>
	<g clip-path="url(#clip_8)">
		<path fill="none" stroke="rgb(54,87,119)" stroke-width="2.7" stroke-miterlimit="4" transform="translate(10.8319 26.2705)" d="M24.3717 14.4926C24.3717 22.4947 18.917 28.9882 12.1874 28.9882C5.45777 28.9882 0 22.4947 0 14.4926C0 6.48739 5.45777 0 12.1874 0C18.917 0 24.3717 6.48739 24.3717 14.4926L24.3717 14.4926Z"/>
	</g>
	<defs>
		<clipPath id="clip_9">
			<rect x="-963" y="-4057" width="1280" height="5408" clip-rule="evenodd"/>
		</clipPath>
	</defs>
	<g clip-path="url(#clip_9)">
		<path fill="none" stroke="rgb(54,87,119)" stroke-width="2.7" stroke-miterlimit="4" transform="translate(10.8319 35.3291)" d="M24.3717 5.08965C23.9573 5.15118 23.624 5.12041 23.2065 5.20587C19.0163 6.09117 16.3277 4.42653 14.0224 0C12.636 2.90544 8.31497 5.20587 4.76031 5.20587C3.01258 5.20587 1.50473 4.81278 0 3.94798"/>
	</g>
	<defs>
		<clipPath id="clip_10">
			<rect x="-963" y="-4057" width="1280" height="5408" clip-rule="evenodd"/>
		</clipPath>
	</defs>
	<g clip-path="url(#clip_10)">
		<path fill="rgb(255,255,255)" stroke="none" transform="translate(55.9646 46.1997)" d="M16.8796 0.395874L16.8796 7.30626L4.78461 11.7749C1.88745 12.8422 0 15.6703 0 18.8405L0 23.5529L46.0354 23.5529L46.0354 18.8405C46.0354 15.6703 44.1479 12.8422 41.2508 11.7749L29.1558 7.30626L29.1558 0"/>
	</g>
	<defs>
		<clipPath id="clip_11">
			<rect x="-963" y="-4057" width="1280" height="5408" clip-rule="evenodd"/>
		</clipPath>
	</defs>
	<g clip-path="url(#clip_11)">
		<path fill="none" stroke="rgb(54,87,119)" stroke-width="2.7" stroke-miterlimit="4" transform="translate(55.9646 46.1997)" d="M16.8796 0.395874L16.8796 7.30626L4.78461 11.7749C1.88745 12.8422 0 15.6703 0 18.8405L0 23.5529L46.0354 23.5529L46.0354 18.8405C46.0354 15.6703 44.1479 12.8422 41.2508 11.7749L29.1558 7.30626L29.1558 0"/>
	</g>
	<defs>
		<clipPath id="clip_12">
			<rect x="-963" y="-4057" width="1280" height="5408" clip-rule="evenodd"/>
		</clipPath>
	</defs>
	<g clip-path="url(#clip_12)">
		<path fill="rgb(255,255,255)" stroke="none" transform="translate(66.7965 19.0234)" d="M24.3717 14.4926C24.3717 22.4947 18.917 28.9882 12.1874 28.9882C5.45777 28.9882 0 22.4947 0 14.4926C0 6.48739 5.45777 0 12.1874 0C18.917 0 24.3717 6.48739 24.3717 14.4926L24.3717 14.4926Z"/>
	</g>
	<defs>
		<clipPath id="clip_13">
			<rect x="-963" y="-4057" width="1280" height="5408" clip-rule="evenodd"/>
		</clipPath>
	</defs>
	<g clip-path="url(#clip_13)">
		<path fill="none" stroke="rgb(54,87,119)" stroke-width="2.7" stroke-miterlimit="4" transform="translate(66.7965 19.0234)" d="M24.3717 14.4926C24.3717 22.4947 18.917 28.9882 12.1874 28.9882C5.45777 28.9882 0 22.4947 0 14.4926C0 6.48739 5.45777 0 12.1874 0C18.917 0 24.3717 6.48739 24.3717 14.4926L24.3717 14.4926Z"/>
	</g>
	<defs>
		<clipPath id="clip_14">
			<rect x="-963" y="-4057" width="1280" height="5408" clip-rule="evenodd"/>
		</clipPath>
	</defs>
	<g clip-path="url(#clip_14)">
		<path fill="none" stroke="rgb(54,87,119)" stroke-width="2.7" stroke-miterlimit="4" transform="translate(66.7965 28.082)" d="M24.3717 5.08965C23.9573 5.15118 23.624 5.12041 23.2065 5.20587C19.0163 6.09117 16.3277 4.42653 14.0224 0C12.636 2.90544 8.31497 5.20587 4.76031 5.20587C3.01258 5.20587 1.50473 4.81278 0 3.94798"/>
	</g>
</svg>
