<?xml version="1.0" encoding="utf-8" ?>
<svg xmlns="http://www.w3.org/2000/svg" xmlns:xlink="http://www.w3.org/1999/xlink" width="39" height="28">
	<defs>
		<clipPath id="clip_0">
			<rect width="39" height="28" clip-rule="evenodd"/>
		</clipPath>
	</defs>
	<g clip-path="url(#clip_0)">
		<path fill="rgb(254,254,254)" stroke="none" d="M27.2041 15.1815L16.061 22.1819C15.8582 22.3277 15.6117 22.4006 15.3215 22.4006C15.1039 22.4006 14.8785 22.3418 14.6468 22.225C14.1679 21.9632 13.9285 21.5547 13.9285 21.0004L13.9285 7.00039C13.9285 6.4461 14.1679 6.03763 14.6468 5.77499C15.1398 5.51235 15.6117 5.52724 16.061 5.81889L27.2041 12.8193C27.6393 13.067 27.8569 13.4606 27.8569 14C27.8569 14.5402 27.6393 14.9338 27.2041 15.1815M38.7933 7.73265C38.6841 6.52999 38.5281 5.45433 38.3253 4.50647C38.0929 3.44179 37.589 2.54488 36.8129 1.81576C36.036 1.08663 35.1328 0.664053 34.1032 0.547236C30.8818 0.182673 26.0146 0 19.5 0C12.9854 0 8.11746 0.182673 4.89684 0.547236C3.86646 0.664053 2.96712 1.08663 2.19804 1.81576C1.42896 2.54488 0.9282 3.44179 0.69654 4.50647C0.47892 5.45433 0.31512 6.52999 0.2067 7.73265C0.0975 8.9361 0.03588 9.93179 0.02184 10.7189C0.00702 11.5061 0 12.6005 0 14C0 15.4002 0.00702 16.4939 0.02184 17.2819C0.03588 18.069 0.0975 19.0647 0.2067 20.2673C0.31512 21.4708 0.47112 22.5465 0.6747 23.4943C0.90636 24.559 1.41102 25.4559 2.18712 26.185C2.96322 26.9142 3.86646 27.3367 4.89684 27.4535C8.11746 27.8181 12.9854 28 19.5 28C26.0146 28 30.8818 27.8181 34.1032 27.4535C35.1328 27.3367 36.0329 26.9142 36.802 26.185C37.5703 25.4559 38.071 24.559 38.3035 23.4943C38.5211 22.5465 38.6841 21.4708 38.7933 20.2673C38.9017 19.0647 38.9633 18.069 38.9782 17.2819C38.9922 16.4939 39 15.4002 39 14C39 12.6005 38.9922 11.5061 38.9782 10.7189C38.9633 9.93179 38.9017 8.9361 38.7933 7.73265"/>
	</g>
</svg>
