<?xml version="1.0" encoding="utf-8" ?>
<svg xmlns="http://www.w3.org/2000/svg" xmlns:xlink="http://www.w3.org/1999/xlink" width="49" height="38">
	<defs>
		<clipPath id="clip_0">
			<path d="M49 4Q49 3.79499 48.9814 3.59314Q48.9627 3.39129 48.9256 3.19425Q48.8885 2.99721 48.8331 2.8066Q48.7778 2.61598 48.7048 2.43334Q48.6317 2.2507 48.5415 2.07752Q48.4513 1.90434 48.3447 1.74204Q48.2381 1.57974 48.116 1.42964Q47.9938 1.27953 47.8571 1.14286Q47.7205 1.00618 47.5704 0.884043Q47.4203 0.761905 47.258 0.655303Q47.0957 0.5487 46.9225 0.458503Q46.7493 0.368306 46.5667 0.295249Q46.384 0.222192 46.1934 0.166871Q46.0028 0.111551 45.8058 0.0744179Q45.6087 0.037285 45.4069 0.0186425Q45.205 0 45 0L4 0Q3.79499 0 3.59314 0.0186425Q3.39129 0.037285 3.19425 0.0744179Q2.99721 0.111551 2.8066 0.166871Q2.61598 0.222192 2.43334 0.295249Q2.2507 0.368306 2.07752 0.458503Q1.90434 0.5487 1.74204 0.655303Q1.57974 0.761905 1.42964 0.884043Q1.27953 1.00618 1.14286 1.14286Q1.00618 1.27953 0.884043 1.42964Q0.761905 1.57974 0.655303 1.74204Q0.5487 1.90434 0.458503 2.07752Q0.368306 2.2507 0.295249 2.43334Q0.222192 2.61598 0.166871 2.8066Q0.111551 2.99721 0.0744179 3.19425Q0.037285 3.39129 0.0186425 3.59314Q0 3.79499 0 4L0 34Q0 34.205 0.0186425 34.4069Q0.037285 34.6087 0.0744179 34.8057Q0.111551 35.0028 0.166871 35.1934Q0.222192 35.384 0.295249 35.5667Q0.368306 35.7493 0.458503 35.9225Q0.5487 36.0957 0.655303 36.258Q0.761905 36.4203 0.884043 36.5704Q1.00618 36.7205 1.14286 36.8571Q1.27953 36.9938 1.42964 37.116Q1.57974 37.2381 1.74204 37.3447Q1.90434 37.4513 2.07752 37.5415Q2.2507 37.6317 2.43334 37.7048Q2.61598 37.7778 2.8066 37.8331Q2.99721 37.8885 3.19425 37.9256Q3.39129 37.9627 3.59314 37.9814Q3.79499 38 4 38L45 38Q45.205 38 45.4069 37.9814Q45.6087 37.9627 45.8058 37.9256Q46.0028 37.8885 46.1934 37.8331Q46.384 37.7778 46.5667 37.7048Q46.7493 37.6317 46.9225 37.5415Q47.0957 37.4513 47.258 37.3447Q47.4203 37.2381 47.5704 37.116Q47.7205 36.9938 47.8571 36.8571Q47.9938 36.7205 48.116 36.5704Q48.2381 36.4203 48.3447 36.258Q48.4513 36.0957 48.5415 35.9225Q48.6317 35.7493 48.7048 35.5667Q48.7778 35.384 48.8331 35.1934Q48.8885 35.0028 48.9256 34.8057Q48.9627 34.6087 48.9814 34.4069Q49 34.205 49 34L49 4Z" clip-rule="evenodd"/>
		</clipPath>
	</defs>
	<g clip-path="url(#clip_0)">
		<path fill="none" stroke="rgb(151,151,151)" stroke-width="2" stroke-miterlimit="4" d="M4 0L45 0Q45.205 0 45.4069 0.0186425Q45.6087 0.037285 45.8058 0.0744179Q46.0028 0.111551 46.1934 0.166871Q46.384 0.222192 46.5667 0.295249Q46.7493 0.368306 46.9225 0.458503Q47.0957 0.5487 47.258 0.655303Q47.4203 0.761905 47.5704 0.884043Q47.7205 1.00618 47.8571 1.14286Q47.9938 1.27953 48.116 1.42964Q48.2381 1.57974 48.3447 1.74204Q48.4513 1.90434 48.5415 2.07752Q48.6317 2.2507 48.7048 2.43334Q48.7778 2.61598 48.8331 2.8066Q48.8885 2.99721 48.9256 3.19425Q48.9627 3.39129 48.9814 3.59314Q49 3.79499 49 4L49 34Q49 34.205 48.9814 34.4069Q48.9627 34.6087 48.9256 34.8057Q48.8885 35.0028 48.8331 35.1934Q48.7778 35.384 48.7048 35.5667Q48.6317 35.7493 48.5415 35.9225Q48.4513 36.0957 48.3447 36.258Q48.2381 36.4203 48.116 36.5704Q47.9938 36.7205 47.8571 36.8571Q47.7205 36.9938 47.5704 37.116Q47.4203 37.2381 47.258 37.3447Q47.0957 37.4513 46.9225 37.5415Q46.7493 37.6317 46.5667 37.7048Q46.384 37.7778 46.1934 37.8331Q46.0028 37.8885 45.8058 37.9256Q45.6087 37.9627 45.4069 37.9814Q45.205 38 45 38L4 38Q3.79499 38 3.59314 37.9814Q3.39129 37.9627 3.19425 37.9256Q2.99721 37.8885 2.8066 37.8331Q2.61598 37.7778 2.43334 37.7048Q2.2507 37.6317 2.07752 37.5415Q1.90434 37.4513 1.74204 37.3447Q1.57974 37.2381 1.42964 37.116Q1.27953 36.9938 1.14286 36.8571Q1.00618 36.7205 0.884043 36.5704Q0.761905 36.4203 0.655303 36.258Q0.5487 36.0957 0.458503 35.9225Q0.368306 35.7493 0.295249 35.5667Q0.222192 35.384 0.166871 35.1934Q0.111551 35.0028 0.0744179 34.8057Q0.037285 34.6087 0.0186425 34.4069Q0 34.205 0 34L0 4Q0 3.79499 0.0186425 3.59314Q0.037285 3.39129 0.0744179 3.19425Q0.111551 2.99721 0.166871 2.8066Q0.222192 2.61598 0.295249 2.43334Q0.368306 2.2507 0.458503 2.07752Q0.5487 1.90434 0.655303 1.74204Q0.761905 1.57974 0.884043 1.42964Q1.00618 1.27953 1.14286 1.14286Q1.27953 1.00618 1.42964 0.884043Q1.57974 0.761905 1.74204 0.655303Q1.90434 0.5487 2.07752 0.458503Q2.2507 0.368306 2.43334 0.295249Q2.61598 0.222192 2.8066 0.166871Q2.99721 0.111551 3.19425 0.0744179Q3.39129 0.037285 3.59314 0.0186425Q3.79499 0 4 0Z"/>
	</g>
	<defs>
		<clipPath id="clip_1">
			<rect width="49" height="38" clip-rule="evenodd"/>
		</clipPath>
	</defs>
	<g clip-path="url(#clip_1)">
		<path fill="none" stroke="rgb(151,151,151)" stroke-width="1" stroke-miterlimit="4" transform="translate(17 13)" d="M5 10C7.76142 10 10 7.76142 10 5C10 2.23858 7.76142 0 5 0C2.23858 0 0 2.23858 0 5C0 7.76142 2.23858 10 5 10Z"/>
	</g>
	<defs>
		<clipPath id="clip_2">
			<rect width="49" height="38" clip-rule="evenodd"/>
		</clipPath>
	</defs>
	<g clip-path="url(#clip_2)">
		<path fill="none" stroke="rgb(151,151,151)" stroke-width="1" stroke-miterlimit="4" transform="translate(25 21)" d="M7.5 7.5L0.5 0.5"/>
	</g>
</svg>
